<!DOCTYPE svg PUBLIC "-//W3C//DTD SVG 20010904//EN" "http://www.w3.org/TR/2001/REC-SVG-20010904/DTD/svg10.dtd">
<svg version="1.0" xmlns="http://www.w3.org/2000/svg" width="144px" height="102px" viewBox="0 0 1440 1020" preserveAspectRatio="xMidYMid meet">
<g id="layer101" fill="#070908" stroke="none">
 <path d="M0 510 l0 -510 720 0 720 0 0 510 0 510 -720 0 -720 0 0 -510z"/>
 </g>
<g id="layer102" fill="#b56f34" stroke="none">
 <path d="M0 510 l0 -510 720 0 720 0 0 510 0 510 -720 0 -720 0 0 -510z m315 451 c-66 -41 -95 -92 -95 -167 0 -43 -1 -44 -27 -38 -87 20 -153 87 -153 155 0 58 27 68 180 69 l125 0 -30 -19z m916 -1 c10 -6 21 -19 24 -30 8 -27 -11 -83 -35 -105 -11 -10 -20 -21 -20 -24 0 -3 26 -4 57 -2 70 4 129 -13 144 -41 26 -48 -34 -138 -91 -138 -9 0 -21 -14 -27 -31 -25 -65 -90 -10 -114 97 -9 39 -9 60 -1 78 l11 24 -47 -15 -47 -15 0 -67 c-1 -42 -7 -77 -18 -98 -15 -28 -15 -39 -5 -77 10 -40 10 -51 -8 -93 -36 -86 -120 -121 -199 -83 -74 36 -75 51 -5 94 95 59 148 134 175 248 29 125 10 203 -65 257 l-42 30 69 4 c92 6 221 -1 244 -13z m-770 -73 c40 -26 79 -98 79 -145 0 -49 -26 -91 -67 -109 -32 -13 -40 -13 -79 2 -53 20 -90 62 -105 118 -31 116 74 199 172 134z m179 8 c27 0 35 -4 37 -20 1 -16 1 -16 -3 -2 -7 21 -27 22 -45 1 -11 -14 -13 -14 -21 0 -10 19 -38 21 -38 4 0 -6 -3 -8 -6 -5 -11 10 17 38 30 30 6 -4 27 -7 46 -8z m291 -34 c53 -53 36 -152 -36 -206 -122 -94 -260 19 -181 149 51 85 160 113 217 57z m-281 -26 c17 -21 4 -35 -35 -35 -40 0 -51 13 -29 34 19 20 48 21 64 1z m-378 -263 c18 -38 48 -78 77 -103 l46 -41 -28 -23 c-56 -49 -153 -41 -201 16 -66 77 -51 186 31 241 28 18 28 18 36 -5 5 -12 22 -50 39 -85z m898 -223 c0 -46 -47 -89 -97 -89 -36 0 -83 22 -83 39 0 4 22 13 49 20 26 7 63 23 82 36 44 31 49 31 49 -6z"/>
 <path d="M400 820 c-25 -25 -25 -41 -1 -71 l20 -24 -2 29 c-3 37 28 59 47 34 16 -22 26 -23 26 -3 0 19 -36 55 -55 55 -8 0 -24 -9 -35 -20z"/>
 <path d="M782 788 c-7 -7 -12 -20 -12 -31 0 -17 1 -17 16 -3 28 28 59 11 52 -28 -3 -14 -2 -26 1 -26 15 0 31 26 31 50 0 14 -5 31 -12 38 -15 15 -61 15 -76 0z"/>
 </g>
<g id="layer103" fill="#a45f97" stroke="none">
 <path d="M0 510 l0 -510 720 0 720 0 0 510 0 510 -720 0 -720 0 0 -510z m315 451 c-66 -41 -95 -92 -95 -167 0 -43 -1 -44 -27 -38 -87 20 -153 87 -153 155 0 58 27 68 180 69 l125 0 -30 -19z m916 -1 c10 -6 21 -19 24 -30 8 -27 -11 -83 -35 -105 -11 -10 -20 -21 -20 -24 0 -3 26 -4 57 -2 70 4 129 -13 144 -41 26 -48 -34 -138 -91 -138 -9 0 -21 -14 -27 -31 -25 -65 -90 -10 -114 97 -9 39 -9 60 -1 78 l11 24 -47 -15 -47 -15 0 -67 c-1 -42 -7 -77 -18 -98 -15 -28 -15 -39 -5 -77 10 -40 10 -51 -8 -93 -36 -86 -120 -121 -199 -83 -74 36 -75 51 -5 94 95 59 148 134 175 248 29 125 10 203 -65 257 l-42 30 69 4 c92 6 221 -1 244 -13z m-770 -73 c40 -26 79 -98 79 -145 0 -49 -26 -91 -67 -109 -32 -13 -40 -13 -79 2 -53 20 -90 62 -105 118 -31 116 74 199 172 134z m179 8 c27 0 35 -4 37 -20 1 -16 1 -16 -3 -2 -7 21 -27 22 -45 1 -11 -14 -13 -14 -21 0 -10 19 -38 21 -38 4 0 -6 -3 -8 -6 -5 -11 10 17 38 30 30 6 -4 27 -7 46 -8z m291 -34 c53 -53 36 -152 -36 -206 -122 -94 -260 19 -181 149 51 85 160 113 217 57z m-281 -26 c17 -21 4 -35 -35 -35 -40 0 -51 13 -29 34 19 20 48 21 64 1z m-378 -263 c18 -38 48 -78 77 -103 l46 -41 -28 -23 c-56 -49 -153 -41 -201 16 -66 77 -51 186 31 241 28 18 28 18 36 -5 5 -12 22 -50 39 -85z m329 -133 c48 -49 50 -53 44 -93 -4 -22 -13 -48 -21 -56 -12 -12 -18 -10 -43 20 -28 33 -28 35 -10 44 27 13 24 55 -6 100 -13 20 -22 36 -19 36 3 0 28 -23 55 -51z m569 -90 c0 -46 -47 -89 -97 -89 -36 0 -83 22 -83 39 0 4 22 13 49 20 26 7 63 23 82 36 44 31 49 31 49 -6z"/>
 <path d="M400 820 c-25 -25 -25 -41 -1 -71 l20 -24 -2 29 c-3 37 28 59 47 34 16 -22 26 -23 26 -3 0 19 -36 55 -55 55 -8 0 -24 -9 -35 -20z"/>
 <path d="M782 788 c-7 -7 -12 -20 -12 -31 0 -17 1 -17 16 -3 28 28 59 11 52 -28 -3 -14 -2 -26 1 -26 15 0 31 26 31 50 0 14 -5 31 -12 38 -15 15 -61 15 -76 0z"/>
 </g>
<g id="layer104" fill="#e88f29" stroke="none">
 <path d="M0 510 l0 -510 720 0 720 0 0 510 0 510 -720 0 -720 0 0 -510z m315 451 c-66 -41 -95 -92 -95 -167 0 -43 -1 -44 -27 -38 -87 20 -153 87 -153 155 0 58 27 68 180 69 l125 0 -30 -19z m916 -1 c10 -6 21 -19 24 -30 8 -27 -11 -83 -35 -105 -11 -10 -20 -21 -20 -24 0 -3 26 -4 57 -2 70 4 129 -13 144 -41 26 -48 -34 -138 -91 -138 -9 0 -21 -14 -27 -31 -25 -65 -90 -10 -114 97 -9 39 -9 60 -1 78 l11 24 -47 -15 -47 -15 0 -67 c-1 -42 -7 -77 -18 -98 -15 -28 -15 -39 -5 -77 10 -40 10 -51 -8 -93 -36 -86 -120 -121 -199 -83 -74 36 -75 51 -5 94 95 59 148 134 175 248 29 125 10 203 -65 257 l-42 30 69 4 c92 6 221 -1 244 -13z m-770 -73 c40 -26 79 -98 79 -145 0 -49 -26 -91 -67 -109 -32 -13 -40 -13 -79 2 -53 20 -90 62 -105 118 -31 116 74 199 172 134z m179 8 c27 0 35 -4 37 -20 1 -16 1 -16 -3 -2 -7 21 -27 22 -45 1 -11 -14 -13 -14 -21 0 -10 19 -38 21 -38 4 0 -6 -3 -8 -6 -5 -11 10 17 38 30 30 6 -4 27 -7 46 -8z m291 -34 c53 -53 36 -152 -36 -206 -122 -94 -260 19 -181 149 51 85 160 113 217 57z m-281 -26 c17 -21 4 -35 -35 -35 -40 0 -51 13 -29 34 19 20 48 21 64 1z m-378 -263 c18 -38 48 -78 77 -103 l46 -41 -28 -23 c-56 -49 -153 -41 -201 16 -66 77 -51 186 31 241 28 18 28 18 36 -5 5 -12 22 -50 39 -85z m333 8 c24 0 73 -50 80 -81 5 -20 1 -41 -13 -68 -11 -21 -24 -59 -27 -84 -10 -68 -29 -78 -65 -36 -27 32 -27 34 -9 43 27 13 24 55 -6 100 -27 40 -18 46 25 16 24 -17 29 -18 40 -5 6 8 9 23 5 34 -8 26 -65 61 -101 62 l-29 1 30 13 c17 8 36 12 43 10 8 -3 20 -5 27 -5z m565 -231 c0 -46 -47 -89 -97 -89 -36 0 -83 22 -83 39 0 4 22 13 49 20 26 7 63 23 82 36 44 31 49 31 49 -6z"/>
 <path d="M400 820 c-25 -25 -25 -41 -1 -71 l20 -24 -2 29 c-3 37 28 59 47 34 16 -22 26 -23 26 -3 0 19 -36 55 -55 55 -8 0 -24 -9 -35 -20z"/>
 <path d="M782 788 c-7 -7 -12 -20 -12 -31 0 -17 1 -17 16 -3 28 28 59 11 52 -28 -3 -14 -2 -26 1 -26 15 0 31 26 31 50 0 14 -5 31 -12 38 -15 15 -61 15 -76 0z"/>
 </g>
<g id="layer105" fill="#a6c346" stroke="none">
 <path d="M0 510 l0 -510 720 0 720 0 0 510 0 510 -720 0 -720 0 0 -510z m315 451 c-66 -41 -95 -92 -95 -167 0 -43 -1 -44 -27 -38 -87 20 -153 87 -153 155 0 58 27 68 180 69 l125 0 -30 -19z m916 -1 c10 -6 21 -19 24 -30 8 -27 -11 -83 -35 -105 -11 -10 -20 -21 -20 -24 0 -3 26 -4 57 -2 70 4 129 -13 144 -41 26 -48 -34 -138 -91 -138 -9 0 -21 -14 -27 -31 -25 -65 -90 -10 -114 97 -9 39 -9 60 -1 78 l11 24 -47 -15 -47 -15 0 -67 c-1 -42 -7 -77 -18 -98 -15 -28 -15 -39 -5 -77 10 -40 10 -51 -8 -93 -36 -86 -120 -121 -199 -83 -74 36 -75 51 -5 94 95 59 148 134 175 248 29 125 10 203 -65 257 l-42 30 69 4 c92 6 221 -1 244 -13z m-770 -73 c40 -26 79 -98 79 -145 0 -49 -26 -91 -67 -109 -32 -13 -40 -13 -79 2 -53 20 -90 62 -105 118 -31 116 74 199 172 134z m179 8 c27 0 35 -4 37 -20 1 -16 1 -16 -3 -2 -7 21 -27 22 -45 1 -11 -14 -13 -14 -21 0 -10 19 -38 21 -38 4 0 -6 -3 -8 -6 -5 -11 10 17 38 30 30 6 -4 27 -7 46 -8z m291 -34 c53 -53 36 -152 -36 -206 -122 -94 -260 19 -181 149 51 85 160 113 217 57z m-281 -26 c17 -21 4 -35 -35 -35 -40 0 -51 13 -29 34 19 20 48 21 64 1z m-378 -263 c18 -38 48 -78 77 -103 l46 -41 -28 -23 c-56 -49 -153 -41 -201 16 -66 77 -51 186 31 241 28 18 28 18 36 -5 5 -12 22 -50 39 -85z m333 8 c24 0 73 -50 80 -81 5 -20 1 -41 -13 -68 -11 -21 -24 -59 -27 -84 -4 -26 -14 -52 -22 -59 -13 -10 -21 -6 -52 29 -20 23 -48 49 -63 58 -25 15 -28 23 -27 69 0 48 17 114 18 75 1 -17 21 -29 48 -29 8 0 27 -9 43 -20 24 -17 29 -18 40 -5 6 8 9 23 5 34 -8 26 -65 61 -101 62 l-29 1 30 13 c17 8 36 12 43 10 8 -3 20 -5 27 -5z m565 -231 c0 -46 -47 -89 -97 -89 -36 0 -83 22 -83 39 0 4 22 13 49 20 26 7 63 23 82 36 44 31 49 31 49 -6z"/>
 <path d="M400 820 c-25 -25 -25 -41 -1 -71 l20 -24 -2 29 c-3 37 28 59 47 34 16 -22 26 -23 26 -3 0 19 -36 55 -55 55 -8 0 -24 -9 -35 -20z"/>
 <path d="M782 788 c-7 -7 -12 -20 -12 -31 0 -17 1 -17 16 -3 28 28 59 11 52 -28 -3 -14 -2 -26 1 -26 15 0 31 26 31 50 0 14 -5 31 -12 38 -15 15 -61 15 -76 0z"/>
 </g>
<g id="layer106" fill="#c66ba8" stroke="none">
 <path d="M0 510 l0 -510 720 0 720 0 0 510 0 510 -720 0 -720 0 0 -510z m315 451 c-66 -41 -95 -92 -95 -167 0 -43 -1 -44 -27 -38 -87 20 -153 87 -153 155 0 58 27 68 180 69 l125 0 -30 -19z m916 -1 c10 -6 21 -19 24 -30 8 -27 -11 -83 -35 -105 -11 -10 -20 -21 -20 -24 0 -3 26 -4 57 -2 70 4 129 -13 144 -41 26 -48 -34 -138 -91 -138 -9 0 -21 -14 -27 -31 -25 -65 -90 -10 -114 97 -9 39 -9 60 -1 78 l11 24 -47 -15 -47 -15 0 -67 c-1 -42 -7 -77 -18 -98 -15 -28 -15 -39 -5 -77 10 -40 10 -51 -8 -93 -36 -86 -120 -121 -199 -83 -74 36 -75 51 -5 94 95 59 148 134 175 248 29 125 10 203 -65 257 l-42 30 69 4 c92 6 221 -1 244 -13z m-770 -73 c40 -26 79 -98 79 -145 0 -49 -26 -91 -67 -109 -32 -13 -40 -13 -79 2 -53 20 -90 62 -105 118 -31 116 74 199 172 134z m179 8 c27 0 35 -4 37 -20 1 -16 1 -16 -3 -2 -7 21 -27 22 -45 1 -11 -14 -13 -14 -21 0 -10 19 -38 21 -38 4 0 -6 -3 -8 -6 -5 -11 10 17 38 30 30 6 -4 27 -7 46 -8z m291 -34 c53 -53 36 -152 -36 -206 -122 -94 -260 19 -181 149 51 85 160 113 217 57z m-281 -26 c17 -21 4 -35 -35 -35 -40 0 -51 13 -29 34 19 20 48 21 64 1z m-378 -263 c18 -38 48 -78 77 -103 l46 -41 -28 -23 c-56 -49 -153 -41 -201 16 -66 77 -51 186 31 241 28 18 28 18 36 -5 5 -12 22 -50 39 -85z m333 8 c24 0 73 -50 80 -81 5 -20 1 -41 -13 -67 -11 -21 -23 -58 -27 -82 -4 -25 -13 -55 -21 -67 -8 -12 -14 -30 -15 -40 0 -10 -9 6 -21 35 -15 41 -31 62 -64 85 -42 30 -44 33 -43 81 0 48 17 113 18 75 1 -17 21 -29 48 -29 8 0 27 -9 43 -20 24 -17 29 -18 40 -5 6 8 9 23 5 34 -8 26 -65 61 -101 62 l-29 1 30 13 c17 8 36 12 43 10 8 -3 20 -5 27 -5z m565 -231 c0 -46 -47 -89 -97 -89 -36 0 -83 22 -83 39 0 4 22 13 49 20 26 7 63 23 82 36 44 31 49 31 49 -6z m-654 -101 c62 -49 77 -85 53 -129 -10 -19 -11 -19 -44 9 -18 16 -38 31 -44 33 -11 4 -15 26 -13 77 2 38 10 39 48 10z"/>
 <path d="M400 820 c-25 -25 -25 -41 -1 -71 l20 -24 -2 29 c-3 37 28 59 47 34 16 -22 26 -23 26 -3 0 19 -36 55 -55 55 -8 0 -24 -9 -35 -20z"/>
 <path d="M782 788 c-7 -7 -12 -20 -12 -31 0 -17 1 -17 16 -3 28 28 59 11 52 -28 -3 -14 -2 -26 1 -26 15 0 31 26 31 50 0 14 -5 31 -12 38 -15 15 -61 15 -76 0z"/>
 </g>
<g id="layer107" fill="#64add0" stroke="none">
 <path d="M0 510 l0 -510 720 0 720 0 0 510 0 510 -720 0 -720 0 0 -510z m315 451 c-66 -41 -95 -92 -95 -167 0 -43 -1 -44 -27 -38 -87 20 -153 87 -153 155 0 58 27 68 180 69 l125 0 -30 -19z m916 -1 c10 -6 21 -19 24 -30 8 -27 -11 -83 -35 -105 -11 -10 -20 -21 -20 -24 0 -3 26 -4 57 -2 70 4 129 -13 144 -41 26 -48 -34 -138 -91 -138 -9 0 -21 -14 -27 -31 -25 -65 -90 -10 -114 97 -9 39 -9 60 -1 78 l11 24 -47 -15 -47 -15 0 -67 c-1 -42 -7 -77 -18 -98 -15 -28 -15 -39 -5 -77 10 -40 10 -51 -8 -93 -36 -86 -120 -121 -199 -83 -74 36 -75 51 -5 94 95 59 148 134 175 248 29 125 10 203 -65 257 l-42 30 69 4 c92 6 221 -1 244 -13z m-770 -73 c40 -26 79 -98 79 -145 0 -49 -26 -91 -67 -109 -32 -13 -40 -13 -79 2 -53 20 -90 62 -105 118 -31 116 74 199 172 134z m179 8 c27 0 35 -4 37 -20 1 -16 1 -16 -3 -2 -7 21 -27 22 -45 1 -11 -14 -13 -14 -21 0 -10 19 -38 21 -38 4 0 -6 -3 -8 -6 -5 -11 10 17 38 30 30 6 -4 27 -7 46 -8z m291 -34 c53 -53 36 -152 -36 -206 -122 -94 -260 19 -181 149 51 85 160 113 217 57z m-281 -26 c17 -21 4 -35 -35 -35 -40 0 -51 13 -29 34 19 20 48 21 64 1z m-378 -263 c18 -38 48 -78 77 -103 l46 -41 -28 -23 c-56 -49 -153 -41 -201 16 -66 77 -51 186 31 241 28 18 28 18 36 -5 5 -12 22 -50 39 -85z m333 8 c24 0 73 -50 80 -81 5 -20 1 -41 -13 -67 -11 -21 -23 -58 -27 -82 -4 -25 -13 -55 -21 -67 -8 -12 -14 -30 -15 -40 0 -10 -9 6 -21 35 -15 41 -31 62 -64 85 -41 29 -44 34 -44 76 0 77 17 121 53 136 18 8 38 12 45 10 8 -3 20 -5 27 -5z m565 -231 c0 -46 -47 -89 -97 -89 -36 0 -83 22 -83 39 0 4 22 13 49 20 26 7 63 23 82 36 44 31 49 31 49 -6z m-654 -101 c62 -49 77 -85 53 -129 -10 -19 -11 -19 -44 9 -18 16 -38 31 -44 33 -11 4 -15 26 -13 77 2 38 10 39 48 10z"/>
 <path d="M400 820 c-25 -25 -25 -41 -1 -71 l20 -24 -2 29 c-3 37 28 59 47 34 16 -22 26 -23 26 -3 0 19 -36 55 -55 55 -8 0 -24 -9 -35 -20z"/>
 <path d="M782 788 c-7 -7 -12 -20 -12 -31 0 -17 1 -17 16 -3 28 28 59 11 52 -28 -3 -14 -2 -26 1 -26 15 0 31 26 31 50 0 14 -5 31 -12 38 -15 15 -61 15 -76 0z"/>
 </g>
<g id="layer108" fill="#e9e74b" stroke="none">
 <path d="M0 510 l0 -510 720 0 720 0 0 510 0 510 -720 0 -720 0 0 -510z m315 451 c-66 -41 -95 -92 -95 -167 0 -43 -1 -44 -27 -38 -87 20 -153 87 -153 155 0 58 27 68 180 69 l125 0 -30 -19z m916 -1 c10 -6 21 -19 24 -30 8 -27 -11 -83 -35 -105 -11 -10 -20 -21 -20 -24 0 -3 26 -4 57 -2 70 4 129 -13 144 -41 26 -48 -34 -138 -91 -138 -9 0 -21 -14 -27 -31 -25 -65 -90 -10 -114 97 -9 39 -9 60 -1 78 l11 24 -47 -15 -47 -15 0 -67 c-1 -42 -7 -77 -18 -98 -15 -28 -15 -39 -5 -77 10 -40 10 -51 -8 -93 -36 -86 -120 -121 -199 -83 -74 36 -75 51 -5 94 95 59 148 134 175 248 29 125 10 203 -65 257 l-42 30 69 4 c92 6 221 -1 244 -13z m-770 -73 c40 -26 79 -98 79 -145 0 -49 -26 -91 -67 -109 -32 -13 -40 -13 -79 2 -53 20 -90 62 -105 118 -31 116 74 199 172 134z m179 8 c27 0 35 -4 37 -20 1 -16 1 -16 -3 -2 -7 21 -27 22 -45 1 -11 -14 -13 -14 -21 0 -10 19 -38 21 -38 4 0 -6 -3 -8 -6 -5 -11 10 17 38 30 30 6 -4 27 -7 46 -8z m291 -34 c53 -53 36 -152 -36 -206 -122 -94 -260 19 -181 149 51 85 160 113 217 57z m-281 -26 c17 -21 4 -35 -35 -35 -40 0 -51 13 -29 34 19 20 48 21 64 1z m-378 -263 c18 -38 48 -78 77 -103 l46 -41 -28 -23 c-56 -49 -153 -41 -201 16 -66 77 -51 186 31 241 28 18 28 18 36 -5 5 -12 22 -50 39 -85z m333 8 c24 0 73 -50 80 -81 5 -20 1 -41 -13 -67 -11 -21 -23 -58 -27 -82 -4 -25 -13 -55 -21 -67 -8 -12 -14 -30 -15 -40 0 -10 -9 6 -21 35 -15 41 -31 62 -64 85 -41 29 -44 34 -44 76 0 77 17 121 53 136 18 8 38 12 45 10 8 -3 20 -5 27 -5z m565 -231 c0 -46 -47 -89 -97 -89 -36 0 -83 22 -83 39 0 4 22 13 49 20 26 7 63 23 82 36 44 31 49 31 49 -6z m-654 -101 c43 -34 63 -61 64 -85 0 -34 -43 -111 -59 -105 -10 3 -12 0 -8 -12 9 -22 -20 -21 -32 2 -15 29 -18 222 -2 222 4 0 21 -10 37 -22z"/>
 <path d="M400 820 c-25 -25 -25 -41 -1 -71 l20 -24 -2 29 c-3 37 28 59 47 34 16 -22 26 -23 26 -3 0 19 -36 55 -55 55 -8 0 -24 -9 -35 -20z"/>
 <path d="M782 788 c-7 -7 -12 -20 -12 -31 0 -17 1 -17 16 -3 28 28 59 11 52 -28 -3 -14 -2 -26 1 -26 15 0 31 26 31 50 0 14 -5 31 -12 38 -15 15 -61 15 -76 0z"/>
 </g>
<g id="layer109" fill="#bcc5d3" stroke="none">
 <path d="M0 510 l0 -510 720 0 720 0 0 510 0 510 -720 0 -720 0 0 -510z m315 451 c-66 -41 -95 -92 -95 -167 0 -43 -1 -44 -27 -38 -87 20 -153 87 -153 155 0 58 27 68 180 69 l125 0 -30 -19z m916 -1 c10 -6 21 -19 24 -30 8 -27 -11 -83 -35 -105 -11 -10 -20 -21 -20 -24 0 -3 26 -4 57 -2 70 4 129 -13 144 -41 26 -48 -34 -138 -91 -138 -9 0 -21 -14 -27 -31 -25 -65 -90 -10 -114 97 -9 39 -9 60 -1 78 l11 24 -47 -15 -47 -15 0 -67 c-1 -42 -7 -77 -18 -98 -15 -28 -15 -39 -5 -77 10 -40 10 -51 -8 -93 -36 -86 -120 -121 -199 -83 -74 36 -75 51 -5 94 95 59 148 134 175 248 29 125 10 203 -65 257 l-42 30 69 4 c92 6 221 -1 244 -13z m-770 -73 c40 -26 79 -98 79 -145 0 -49 -26 -91 -67 -109 -32 -13 -40 -13 -79 2 -53 20 -90 62 -105 118 -31 116 74 199 172 134z m179 8 c27 0 35 -4 37 -20 1 -16 1 -16 -3 -2 -7 21 -27 22 -45 1 -11 -14 -13 -14 -21 0 -10 19 -38 21 -38 4 0 -6 -3 -8 -6 -5 -11 10 17 38 30 30 6 -4 27 -7 46 -8z m291 -34 c53 -53 36 -152 -36 -206 -122 -94 -260 19 -181 149 51 85 160 113 217 57z m-281 -26 c17 -21 4 -35 -35 -35 -40 0 -51 13 -29 34 19 20 48 21 64 1z m-378 -263 c18 -38 48 -78 77 -103 l46 -41 -28 -23 c-56 -49 -153 -41 -201 16 -66 77 -51 186 31 241 28 18 28 18 36 -5 5 -12 22 -50 39 -85z m333 8 c24 0 73 -50 80 -81 5 -20 1 -41 -13 -67 -11 -21 -23 -58 -27 -82 -4 -25 -13 -54 -19 -65 -7 -11 -15 -31 -18 -45 -8 -32 -26 -83 -51 -141 -15 -33 -25 -45 -36 -41 -10 4 -13 1 -8 -11 9 -25 -20 -22 -33 3 -20 37 -12 382 11 473 8 29 18 42 42 52 18 8 38 12 45 10 8 -3 20 -5 27 -5z m565 -231 c0 -46 -47 -89 -97 -89 -36 0 -83 22 -83 39 0 4 22 13 49 20 26 7 63 23 82 36 44 31 49 31 49 -6z"/>
 <path d="M400 820 c-25 -25 -25 -41 -1 -71 l20 -24 -2 29 c-3 37 28 59 47 34 16 -22 26 -23 26 -3 0 19 -36 55 -55 55 -8 0 -24 -9 -35 -20z"/>
 <path d="M782 788 c-7 -7 -12 -20 -12 -31 0 -17 1 -17 16 -3 28 28 59 11 52 -28 -3 -14 -2 -26 1 -26 15 0 31 26 31 50 0 14 -5 31 -12 38 -15 15 -61 15 -76 0z"/>
 </g>
<g id="layer110" fill="#fcfcfc" stroke="none">
 <path d="M0 510 l0 -510 720 0 720 0 0 510 0 510 -720 0 -720 0 0 -510z m795 483 c53 -11 137 -16 245 -17 173 -1 203 -8 215 -46 8 -27 -11 -83 -35 -105 -30 -27 -24 -33 18 -22 55 15 153 -17 166 -53 14 -43 -15 -96 -68 -122 -29 -14 -46 -29 -48 -42 -2 -14 -12 -22 -29 -24 -34 -4 -64 33 -85 105 -8 29 -19 53 -23 53 -4 0 -17 9 -29 20 -24 23 -37 12 -28 -24 3 -13 -4 -52 -15 -87 -16 -48 -19 -76 -14 -115 5 -42 2 -62 -15 -101 -27 -61 -55 -81 -122 -88 -49 -5 -56 -3 -100 30 -50 36 -60 55 -31 55 20 0 101 51 130 82 32 34 94 157 95 188 1 31 -20 126 -35 155 -22 46 -73 86 -132 104 -166 51 -367 54 -471 7 -32 -15 -70 -37 -83 -49 -41 -38 -81 -99 -81 -124 0 -20 -3 -23 -27 -17 -51 12 -120 53 -138 81 -24 36 -23 110 2 129 13 9 55 14 143 14 69 1 159 7 200 14 108 19 299 19 395 -1z m-319 -111 c17 -15 40 -52 53 -83 22 -56 22 -56 3 -104 -16 -40 -25 -51 -56 -62 -69 -23 -134 4 -168 71 -29 56 -29 121 0 169 23 36 25 37 80 37 47 -1 62 -5 88 -28z m165 19 c23 12 33 6 44 -28 4 -14 2 -23 -4 -23 -6 0 -11 9 -11 20 0 24 -22 26 -40 5 -11 -14 -14 -13 -25 2 -11 15 -15 15 -29 4 -14 -11 -16 -11 -16 2 0 20 20 27 43 15 11 -5 25 -5 38 3z m263 -17 c19 -9 39 -28 45 -41 17 -37 13 -100 -9 -142 -36 -71 -161 -111 -209 -66 -10 8 -26 33 -36 55 -18 39 -18 40 9 94 28 58 71 92 130 106 17 5 32 8 33 9 1 1 18 -6 37 -15z m-254 -49 c15 -19 6 -30 -31 -39 -36 -8 -56 15 -34 38 21 20 49 21 65 1z m-394 -221 c4 -16 12 -40 19 -54 16 -31 88 -105 110 -114 28 -10 12 -30 -48 -59 -57 -28 -59 -28 -102 -12 -23 9 -57 32 -75 50 -28 29 -32 40 -33 92 -1 50 3 67 26 102 48 72 85 70 103 -5z m366 6 c57 -16 98 -63 98 -111 0 -25 -5 -42 -15 -45 -22 -9 -52 -66 -60 -115 -4 -24 -13 -55 -20 -69 -15 -30 -34 -84 -44 -125 -4 -17 -12 -39 -18 -50 -5 -11 -16 -33 -24 -50 -9 -18 -22 -30 -34 -30 -32 0 -44 55 -39 170 12 289 23 368 55 409 22 28 44 31 101 16z m552 -255 c9 -24 -21 -80 -49 -93 -36 -17 -86 -15 -113 4 -24 17 -29 34 -9 34 13 0 106 41 137 60 21 13 27 12 34 -5z"/>
 <path d="M400 820 c-25 -25 -25 -42 0 -71 l20 -24 -5 25 c-4 15 0 33 10 45 15 20 15 20 34 -2 22 -27 31 -29 31 -8 0 19 -36 55 -55 55 -8 0 -24 -9 -35 -20z"/>
 <path d="M782 788 c-7 -7 -12 -20 -12 -31 0 -17 1 -17 16 -3 28 28 59 11 52 -28 -3 -14 -2 -26 1 -26 15 0 31 26 31 50 0 14 -5 31 -12 38 -15 15 -61 15 -76 0z"/>
 </g>

</svg>