<?xml version="1.0" encoding="UTF-8" standalone="no"?>
<!-- Created with Inkscape (http://www.inkscape.org/) -->

<svg
   xmlns:dc="http://purl.org/dc/elements/1.1/"
   xmlns:cc="http://creativecommons.org/ns#"
   xmlns:rdf="http://www.w3.org/1999/02/22-rdf-syntax-ns#"
   xmlns:svg="http://www.w3.org/2000/svg"
   xmlns="http://www.w3.org/2000/svg"
   xmlns:sodipodi="http://sodipodi.sourceforge.net/DTD/sodipodi-0.dtd"
   xmlns:inkscape="http://www.inkscape.org/namespaces/inkscape"
   width="10mm"
   height="10mm"
   viewBox="0 0 10 10"
   version="1.1"
   id="svg1170"
   inkscape:version="0.92.3 (2405546, 2018-03-11)"
   sodipodi:docname="unlock_logo.svg"
   inkscape:export-filename="/home/eloise/Unlock/logo/unlock_logo.png"
   inkscape:export-xdpi="749"
   inkscape:export-ydpi="749">
  <title
     id="title1031">Logo Unlock</title>
  <defs
     id="defs1164" />
  <sodipodi:namedview
     id="base"
     pagecolor="#db0034"
     bordercolor="#666666"
     borderopacity="1.0"
     inkscape:pageopacity="0"
     inkscape:pageshadow="2"
     inkscape:zoom="9.195"
     inkscape:cx="-2.07414"
     inkscape:cy="10.453538"
     inkscape:document-units="mm"
     inkscape:current-layer="layer1"
     showgrid="false"
     inkscape:window-width="1600"
     inkscape:window-height="876"
     inkscape:window-x="0"
     inkscape:window-y="24"
     inkscape:window-maximized="1"
     inkscape:snap-bbox="true"
     inkscape:snap-midpoints="true"
     inkscape:snap-bbox-midpoints="true"
     inkscape:snap-intersection-paths="false"
     inkscape:snap-object-midpoints="true"
     inkscape:snap-global="true" />
  <metadata
     id="metadata1167">
    <rdf:RDF>
      <cc:Work
         rdf:about="">
        <dc:format>image/svg+xml</dc:format>
        <dc:type
           rdf:resource="http://purl.org/dc/dcmitype/StillImage" />
        <dc:title>Logo Unlock</dc:title>
        <cc:license
           rdf:resource="http://creativecommons.org/licenses/by-nc-sa/4.0/" />
        <dc:creator>
          <cc:Agent>
            <dc:title>Eloise Brocas</dc:title>
          </cc:Agent>
        </dc:creator>
      </cc:Work>
      <cc:License
         rdf:about="http://creativecommons.org/licenses/by-nc-sa/4.0/">
        <cc:permits
           rdf:resource="http://creativecommons.org/ns#Reproduction" />
        <cc:permits
           rdf:resource="http://creativecommons.org/ns#Distribution" />
        <cc:requires
           rdf:resource="http://creativecommons.org/ns#Notice" />
        <cc:requires
           rdf:resource="http://creativecommons.org/ns#Attribution" />
        <cc:prohibits
           rdf:resource="http://creativecommons.org/ns#CommercialUse" />
        <cc:permits
           rdf:resource="http://creativecommons.org/ns#DerivativeWorks" />
        <cc:requires
           rdf:resource="http://creativecommons.org/ns#ShareAlike" />
      </cc:License>
    </rdf:RDF>
  </metadata>
  <g
     inkscape:label="Calque 1"
     inkscape:groupmode="layer"
     id="layer1"
     transform="translate(0,-287)">
    <rect
       y="286.72302"
       x="-0.67477465"
       height="11.231075"
       width="11.445262"
       id="rect995"
       style="fill:#000000;fill-opacity:0;stroke:none;stroke-width:0.82134932;stroke-linecap:square;stroke-linejoin:miter;stroke-miterlimit:4;stroke-dasharray:none;stroke-opacity:1" />
    <rect
       style="fill:#2b0000;fill-opacity:0;stroke:none;stroke-width:0.79374999;stroke-linecap:square;stroke-linejoin:miter;stroke-miterlimit:4;stroke-dasharray:none;stroke-opacity:1"
       id="rect827"
       width="17.253017"
       height="15.491012"
       x="-2.2759299"
       y="285.69376" />
    <rect
       style="fill:#2b0000;fill-opacity:0;stroke:none;stroke-width:0.79374999;stroke-linecap:square;stroke-linejoin:miter;stroke-miterlimit:4;stroke-dasharray:none;stroke-opacity:1"
       id="rect829"
       width="6.8277903"
       height="6.6809406"
       x="-13.435328"
       y="287.01529" />
    <g
       id="g1069" />
    <g
       id="g1078"
       transform="translate(0.00768209,0.22658316)"
       inkscape:export-xdpi="1887.77"
       inkscape:export-ydpi="1887.77">
      <path
         inkscape:connector-curvature="0"
         style="display:inline;fill:#a89331;fill-opacity:1;stroke:#ffffff;stroke-width:0;stroke-linecap:square;stroke-linejoin:miter;stroke-miterlimit:4;stroke-dasharray:none;stroke-opacity:1"
         d="m 3.1078826,292.7225 v 1.59939 a 1.8844998,1.8844997 0 0 0 1.8846395,1.88464 1.8844998,1.8844997 0 0 0 1.8841227,-1.88464 h 5.168e-4 v -0.88264 H 6.3505785 v 0.88264 a 1.3584594,1.3584751 0 0 1 -1.3580564,1.35857 1.3584594,1.3584751 0 0 1 -1.3585735,-1.35857 v -1.59939 z"
         id="rect1829-5-3-0-36-4"
         transform="translate(0,2.5000001e-6)" />
      <rect
         transform="rotate(180,0,1.25e-6)"
         ry="0.74201745"
         y="-292.72232"
         x="-7.6833291"
         height="5.3820224"
         width="5.3820224"
         id="rect1808-3-1-9-6"
         style="fill:#121212;fill-opacity:1;stroke:none;stroke-width:0;stroke-linecap:square;stroke-linejoin:miter;stroke-miterlimit:4;stroke-dasharray:none;stroke-opacity:1"
         inkscape:export-xdpi="749"
         inkscape:export-ydpi="749" />
      <path
         inkscape:connector-curvature="0"
         id="path913-9-7-3"
         d="m 3.9636443,288.669 v 0.32712 c -0.1524,0.0233 -0.2689027,0.0776 -0.3493328,0.16226 -0.08043,0.0847 -0.1209228,0.19474 -0.1209228,0.33021 0,0.0762 0.013831,0.14037 0.041341,0.19327 0.027515,0.0509 0.062573,0.0952 0.1049031,0.13333 0.04445,0.036 0.094315,0.0671 0.1493451,0.0925 0.057147,0.0254 0.1138989,0.0487 0.1710489,0.0698 0.00127,4.5e-4 0.00235,0.001 0.00362,0.002 v 0.61753 c -0.090669,-0.003 -0.171227,-0.013 -0.2351278,-0.032 -0.078313,-0.0254 -0.1459384,-0.0516 -0.2030884,-0.0791 l -0.07028,0.21911 c 0.040217,0.0233 0.1019349,0.0475 0.1844847,0.0729 0.08255,0.0256 0.1906614,0.0404 0.3240114,0.0444 v 0.35554 h 0.234611 v -0.36536 c 0.17145,-0.0212 0.2983053,-0.0749 0.3808553,-0.16174 0.082545,-0.0868 0.1240234,-0.19242 0.1240234,-0.3173 0,-0.0826 -0.015792,-0.1536 -0.047542,-0.2129 -0.02963,-0.0593 -0.070123,-0.11015 -0.1209228,-0.15245 -0.0508,-0.0422 -0.110037,-0.0783 -0.1777669,-0.108 -0.051321,-0.024 -0.1048951,-0.0455 -0.1586466,-0.0672 v -0.57981 c 0.068955,0.004 0.1312368,0.0108 0.1808673,0.0248 0.06773,0.0169 0.1240153,0.0337 0.1684653,0.0507 l 0.053744,-0.22221 c -0.042333,-0.0169 -0.099079,-0.0327 -0.1710489,-0.0475 -0.06985,-0.0171 -0.1473573,-0.0275 -0.2320272,-0.0315 v -0.3184 z m 0,0.55863 v 0.46767 c -0.03176,-0.0152 -0.063721,-0.0304 -0.0894,-0.0481 -0.03387,-0.0233 -0.060015,-0.0499 -0.079065,-0.0796 -0.0169,-0.0296 -0.025321,-0.0666 -0.025321,-0.11111 0,-0.0804 0.029613,-0.14167 0.088884,-0.18397 0.028824,-0.0199 0.064412,-0.0344 0.1049031,-0.045 z m 0.234611,0.85111 c 0.026799,0.0136 0.056547,0.0252 0.079582,0.0413 0.044455,0.0275 0.079503,0.0606 0.104903,0.0987 0.0254,0.036 0.037724,0.0804 0.037724,0.13332 0,0.036 -0.00642,0.0696 -0.01912,0.10129 -0.0127,0.0297 -0.033932,0.0563 -0.063562,0.0796 -0.029635,0.0212 -0.070587,0.038 -0.1235064,0.0507 -0.00427,9.1e-4 -0.011568,7.1e-4 -0.01602,0.002 z"
         style="font-style:normal;font-variant:normal;font-weight:normal;font-stretch:normal;font-size:3.17499995px;line-height:0;font-family:'Ubuntu Mono';-inkscape-font-specification:'Ubuntu Mono';font-variant-ligatures:normal;font-variant-caps:normal;font-variant-numeric:normal;font-feature-settings:normal;text-align:start;letter-spacing:0px;word-spacing:0px;writing-mode:lr-tb;text-anchor:start;fill:#a89331;fill-opacity:1;stroke:none;stroke-width:0.26458332" />
      <path
         inkscape:connector-curvature="0"
         d="m 4.8968317,291.17116 h 1.5367 v 0.22225 h -1.5367 z"
         style="font-style:normal;font-variant:normal;font-weight:normal;font-stretch:normal;font-size:3.17499995px;line-height:0;font-family:'Ubuntu Mono';-inkscape-font-specification:'Ubuntu Mono';font-variant-ligatures:normal;font-variant-caps:normal;font-variant-numeric:normal;font-feature-settings:normal;text-align:start;letter-spacing:0px;word-spacing:0px;writing-mode:lr-tb;text-anchor:start;fill:#f6f6f6;fill-opacity:1;stroke:none;stroke-width:0.26458332"
         id="path915-2-0-7" />
    </g>
  </g>
</svg>
